<svg xmlns="http://www.w3.org/2000/svg" width="33.37" height="24" viewBox="0 0 33.37 24">
  <path id="Path_234" data-name="Path 234" d="M61.823,202.388a14.1,14.1,0,0,0-8.027-3l-.4.453a19.186,19.186,0,0,1,7.109,3.622,24.3,24.3,0,0,0-21.338-.819c-.989.453-1.6.783-1.679.819A19.437,19.437,0,0,1,45,199.731l-.283-.342a14.126,14.126,0,0,0-8.033,3,38.278,38.278,0,0,0-4.111,16.656s2.4,4.146,8.711,4.346c0,0,1.06-1.29,1.914-2.373a8.9,8.9,0,0,1-4.994-3.363c.424.289,1.113.666,1.166.707a20.837,20.837,0,0,0,17.828,1,16.13,16.13,0,0,0,3.28-1.684,9.032,9.032,0,0,1-5.165,3.4c.86,1.084,1.885,2.315,1.885,2.315,6.319-.2,8.746-4.346,8.746-4.346A38.236,38.236,0,0,0,61.823,202.388Zm-17.91,14a3.183,3.183,0,1,1,2.915-3.169A3.059,3.059,0,0,1,43.913,216.387Zm10.424,0a3.183,3.183,0,1,1,2.915-3.169A3.059,3.059,0,0,1,54.338,216.387Z" transform="translate(-32.57 -199.39)" fill="#fff"/>
</svg>
