<svg xmlns="http://www.w3.org/2000/svg" width="29.541" height="24" viewBox="0 0 29.541 24">
  <path id="Path_233" data-name="Path 233" d="M155.222,195.024a6.031,6.031,0,0,1-2.659,3.332,12,12,0,0,0,3.488-.941,12.719,12.719,0,0,1-3.034,3.141c.015.259.015.527.015.785,0,8-6.093,17.229-17.224,17.229a17.151,17.151,0,0,1-9.3-2.717,12.508,12.508,0,0,0,8.971-2.512,6.059,6.059,0,0,1-5.659-4.2,6.534,6.534,0,0,0,2.732-.112,6.05,6.05,0,0,1-4.844-5.946v-.073a6.016,6.016,0,0,0,2.732.766,6.048,6.048,0,0,1-2.7-5.039,5.972,5.972,0,0,1,.824-3.059,17.171,17.171,0,0,0,12.483,6.337,6.068,6.068,0,0,1,10.332-5.532A11.84,11.84,0,0,0,155.222,195.024Z" transform="translate(-126.51 -194.57)" fill="#fff"/>
</svg>
